{"title":"Act of Valor 2012 720p HDRip H264 { BLOVES }","uid":7168348,"size":2745841233,"categoryP":"video","categoryS":"hd___movies","magnet":"?xt=urn:btih:d926a0cc6bc296f1479c2a2c4fc1952e32be4d0b&amp;dn=Act+of+Valor+2012+720p+HDRip+H264+%7B+BLOVES+%7D&amp;tr=udp%3A%2F%2Ftracker.openbittorrent.com%3A80&amp;tr=udp%3A%2F%2Fopen.demonii.com%3A1337&amp;tr=udp%3A%2F%2Ftracker.coppersurfer.tk%3A6969&amp;tr=udp%3A%2F%2Fexodus.desync.com%3A6969","seeders":0,"leechers":0,"uploader":"BLOVES","files":6,"time":1333865216,"description":"Size: 2.52 GiB\nVideo: XviD | 1280Ã—720 | 3000 Kbps | 29.970 fps\nAudio: English | MP3 | 320 Kbps\nRuntime: 1h 49mn\nSubtitle: Korean HC\nSample: Yes\n\nGenre: Action | Adventure | Thriller\nIMDB rating: 6.6/10 from 5,102 users\nDirected by: Mike McCoy, Scott Waugh\nStarring: Alex Veadov, Roselyn Sanchez and Nestor Serrano\n\n\nGeneral\nFormat : AVI\nFormat/Info : Audio Video Interleave\nFormat profile : OpenDML\nFile size : 2.52 GiB\nDuration : 1h 49mn\nOverall bit rate : 3 292 Kbps\nWriting application : Lavf53.12.0\n\nVideo\nID : 0\nFormat : AVC\nFormat/Info : Advanced Video Codec\nFormat profile : &lt;a class=&quot;__cf_email__&quot; href=&quot;/cdn-cgi/l/email-protection&quot; data-cfemail=&quot;f8ba998b9d9491969db8b4cbd6c8&quot;&gt;[email&amp;#160;protected]&lt;/a&gt;&lt;script cf-hash='f9e31' type=&quot;text/javascript&quot;&gt;\n/* &lt;![CDATA[ */!function(){try{var t=&quot;currentScript&quot;in document?document.currentScript:function(){for(var t=document.getElementsByTagName(&quot;script&quot;),e=t.length;e--;)if(t[e].getAttribute(&quot;cf-hash&quot;))return t[e]}();if(t&amp;&amp;t.previousSibling){var e,r,n,i,c=t.previousSibling,a=c.getAttribute(&quot;data-cfemail&quot;);if(a){for(e=&quot;&quot;,r=parseInt(a.substr(0,2),16),n=2;a.length-n;n+=2)i=parseInt(a.substr(n,2),16)^r,e+=String.fromCharCode(i);e=document.createTextNode(e),c.parentNode.replaceChild(e,c)}}}catch(u){}}();/* ]]&gt; */&lt;/script&gt;\nFormat settings, CABAC : No\nFormat settings, ReFrames : 1 frame\nCodec ID : H264\nDuration : 1h 49mn\nBit rate : 3 000 Kbps\nWidth : 1 280 pixels\nHeight : 720 pixels\nDisplay aspect ratio : 16:9\nFrame rate mode : Variable\nFrame rate : 29.970 fps\nColor space : YUV\nChroma subsampling : 4:2:0\nBit depth : 8 bits\nScan type : Progressive\nBits/(Pixel*Frame) : 0.109\nStream size : 2.27 GiB (90%)\nWriting library : x264 core 116 r2074 2641b9e\n\nAudio\nID : 1\nFormat : MPEG Audio\nFormat version : Version 1\nFormat profile : Layer 3\nMode : Joint stereo\nMode extension : MS Stereo\nCodec ID : 55\nCodec ID/Hint : MP3\nDuration : 1h 49mn\nBit rate mode : Constant\nBit rate : 320 Kbps\nChannel(s) : 2 channels\nSampling rate : 48.0 KHz\nCompression mode : Lossy\nStream size : 251 MiB (10%)\nAlignment : Aligned on interleaves\nInterleave, duration : 24 ms (0.72 video frame)\nInterleave, preload duration : 5 ms\nWriting library : LAME3.98.4\n","torrent":{"xt":"urn:btih:d926a0cc6bc296f1479c2a2c4fc1952e32be4d0b","amp;dn":"Act+of+Valor+2012+720p+HDRip+H264+%7B+BLOVES+%7D","amp;tr":["udp%3A%2F%2Ftracker.openbittorrent.com%3A80","udp%3A%2F%2Fopen.demonii.com%3A1337","udp%3A%2F%2Ftracker.coppersurfer.tk%3A6969","udp%3A%2F%2Fexodus.desync.com%3A6969"],"infoHash":"d926a0cc6bc296f1479c2a2c4fc1952e32be4d0b","infoHashBuffer":{"type":"Buffer","data":[217,38,160,204,107,194,150,241,71,156,42,44,79,193,149,46,50,190,77,11]},"announce":[],"urlList":[]}}